<svg viewBox="0 0 512 512" version="1.1" xmlns="http://www.w3.org/2000/svg" desc="Created with imagetracer.js version 1.2.6" ><path fill="#000000" stroke="rgb(0,0,0)" stroke-width="0" opacity="1" d="M 272.5 48 L 293.5 48 L 294.5 49 L 308.5 49 L 309.5 50 L 317.5 50 L 318.5 51 L 324.5 51 L 325.5 52 L 329.5 52 L 330.5 53 Q 333.8 52.3 334.5 54 L 338.5 54 L 339.5 55 L 342.5 55 Q 343.3 56.8 346.5 56 L 347.5 57 L 349.5 57 L 350.5 58 Q 353 57.5 353.5 59 L 356.5 59 L 357.5 60 L 359.5 60 Q 360 61.5 362.5 61 L 363.5 62 Q 365.2 61.7 365.5 63 L 367.5 63 L 372.5 66 L 374.5 66 L 375.5 67 L 376.5 67 L 377.5 68 L 378.5 68 L 379.5 69 L 380.5 69 L 381.5 70 L 394.5 76 L 399.5 80 L 402.5 81 L 404.5 83 L 405.5 83 L 407.5 85 L 408.5 85 L 410.5 87 L 411.5 87 L 420.5 95 L 421.5 95 L 437 110.5 L 437 111.5 L 442 116.5 L 442 117.5 L 448 125.5 L 452 134.5 L 454 136.5 L 454 138.5 L 455 139.5 Q 454.7 141.2 456 141.5 L 456 143.5 L 458 146.5 Q 457.5 149 459 149.5 L 459 152.5 L 460 153.5 Q 459.5 156 461 156.5 L 461 160.5 L 462 161.5 L 462 166.5 L 463 167.5 L 463 176.5 L 464 177.5 L 464 189.5 L 463 190.5 L 463 199.5 L 462 200.5 L 462 205.5 L 461 206.5 L 461 209.5 Q 459.3 210.2 460 213.5 L 459 214.5 L 459 216.5 L 458 217.5 L 458 219.5 Q 456.5 220 457 222.5 L 455 225.5 L 455 227.5 L 454 228.5 L 448 241.5 L 443 247.5 L 443 248.5 L 441 250.5 L 441 251.5 L 437 255.5 L 437 256.5 L 417.5 276 L 416.5 276 L 408.5 284 L 407.5 284 L 399.5 292 L 398.5 292 L 390 300.5 L 390 301.5 L 388 304.5 L 388 309.5 L 389 310.5 L 390 313.5 L 396.5 320 L 397.5 320 L 400.5 322 L 403.5 322 L 404.5 323 L 408.5 323 L 409.5 324 L 414.5 324 L 415.5 325 L 418.5 325 L 419.5 326 L 422.5 326 Q 423 327.5 425.5 327 L 426.5 328 L 435.5 332 L 437.5 334 L 438.5 334 L 446 341.5 L 446 342.5 L 450 347.5 L 450 348.5 L 452 351.5 L 452 353.5 Q 453.5 354 453 356.5 L 454 357.5 Q 453.3 360.8 455 361.5 L 455 366.5 L 456 367.5 L 456 377.5 L 455 378.5 L 455 382.5 L 454 383.5 L 454 386.5 Q 452.5 387 453 389.5 L 452 390.5 L 449 397.5 L 447 399.5 L 447 400.5 L 434.5 413 L 433.5 413 L 430.5 416 L 429.5 416 L 425.5 420 L 424.5 420 L 413.5 428 L 410.5 429 L 408.5 431 L 403.5 433 L 401.5 435 L 400.5 435 L 387.5 442 L 385.5 442 L 378.5 446 L 376.5 446 Q 376 447.5 373.5 447 L 370.5 449 L 368.5 449 L 367.5 450 L 365.5 450 L 364.5 451 L 362.5 451 L 361.5 452 Q 359 451.5 358.5 453 L 355.5 453 L 354.5 454 Q 352 453.5 351.5 455 L 348.5 455 L 347.5 456 L 344.5 456 L 343.5 457 Q 340.3 456.3 339.5 458 L 335.5 458 L 334.5 459 L 330.5 459 L 329.5 460 L 324.5 460 L 323.5 461 L 317.5 461 L 316.5 462 L 308.5 462 L 307.5 463 L 295.5 463 L 294.5 464 L 267.5 464 L 266.5 463 L 254.5 463 L 253.5 462 L 246.5 462 L 245.5 461 L 239.5 461 L 238.5 460 L 233.5 460 L 232.5 459 L 228.5 459 L 227.5 458 L 223.5 458 L 222.5 457 L 219.5 457 L 218.5 456 L 215.5 456 Q 214.8 454.3 211.5 455 L 210.5 454 Q 208 454.5 207.5 453 L 204.5 453 L 203.5 452 L 201.5 452 L 200.5 451 L 198.5 451 L 197.5 450 L 195.5 450 L 194.5 449 L 192.5 449 Q 192 447.5 189.5 448 L 186.5 446 L 184.5 446 Q 184 444.5 181.5 445 L 174.5 441 L 172.5 441 L 171.5 440 L 170.5 440 L 169.5 439 L 168.5 439 L 167.5 438 L 154.5 432 L 152.5 430 L 149.5 429 L 147.5 427 L 144.5 426 L 142.5 424 L 141.5 424 L 139.5 422 L 138.5 422 L 136.5 420 L 135.5 420 L 124.5 411 L 123.5 411 L 118.5 406 L 117.5 406 L 95 383.5 L 95 382.5 L 90 377.5 L 90 376.5 L 84 369.5 L 84 368.5 L 76 357.5 L 76 356.5 L 73 352.5 L 71 347.5 L 69 345.5 L 69 344.5 L 65 337.5 L 65 335.5 L 62 330.5 L 62 328.5 L 60 325.5 L 60 323.5 L 59 322.5 L 59 320.5 L 58 319.5 L 58 317.5 L 57 316.5 L 57 314.5 L 56 313.5 Q 56.5 311 55 310.5 L 55 307.5 L 54 306.5 L 54 303.5 L 53 302.5 Q 53.7 299.3 52 298.5 L 52 294.5 L 51 293.5 L 51 289.5 L 50 288.5 L 50 281.5 L 49 280.5 L 49 270.5 L 48 269.5 L 48 248.5 L 49 247.5 L 49 236.5 L 50 235.5 L 50 229.5 L 51 228.5 L 51 223.5 L 52 222.5 L 52 218.5 L 53 217.5 L 53 214.5 Q 54.8 213.8 54 210.5 L 55 209.5 Q 54.5 207 56 206.5 L 56 203.5 L 57 202.5 L 57 200.5 L 58 199.5 L 58 197.5 Q 59.5 197 59 194.5 L 61 191.5 L 61 189.5 L 63 186.5 L 63 184.5 L 64 183.5 L 64 182.5 L 65 181.5 L 65 180.5 L 66 179.5 L 66 178.5 L 67 177.5 L 73 164.5 L 75 162.5 L 76 159.5 L 78 157.5 L 78 156.5 L 81 152.5 L 81 151.5 L 84 148.5 L 84 147.5 L 90 140.5 L 90 139.5 L 94 135.5 L 94 134.5 L 110.5 117 L 111.5 117 L 119.5 109 L 120.5 109 L 130.5 100 L 131.5 100 L 134.5 97 L 135.5 97 L 137.5 95 L 138.5 95 L 140.5 93 L 141.5 93 L 152.5 85 L 157.5 83 L 159.5 81 L 160.5 81 L 183.5 69 L 185.5 69 L 188.5 67 L 190.5 67 L 193.5 65 L 195.5 65 L 198.5 63 L 200.5 63 L 201.5 62 L 203.5 62 L 204.5 61 L 206.5 61 L 207.5 60 Q 210 60.5 210.5 59 L 213.5 59 L 214.5 58 Q 217 58.5 217.5 57 L 220.5 57 L 221.5 56 L 224.5 56 L 225.5 55 Q 228.8 55.8 229.5 54 L 233.5 54 L 234.5 53 L 238.5 53 L 239.5 52 L 244.5 52 L 245.5 51 L 250.5 51 L 251.5 50 L 258.5 50 L 259.5 49 L 271.5 49 L 272.5 48 Z M 219 112 Q 218 114 216 113 L 215 114 L 213 114 L 208 117 L 207 117 L 205 119 L 204 119 L 196 128 L 195 131 L 194 132 L 194 134 L 193 135 L 193 138 L 192 139 L 192 150 Q 194 150 193 153 L 194 154 L 194 156 L 197 161 L 197 162 L 199 164 L 199 165 L 208 172 L 211 173 L 212 174 L 214 174 L 215 175 L 218 175 L 219 176 L 230 176 Q 230 175 233 175 L 234 174 L 236 174 L 241 171 L 242 171 L 244 169 L 245 169 L 252 161 L 253 158 L 254 157 L 254 155 L 255 154 L 255 151 L 256 150 L 256 139 Q 255 138 255 136 L 254 135 L 254 133 Q 252 130 251 127 L 249 125 L 249 124 L 245 119 L 244 119 L 241 116 L 238 115 L 237 114 Q 234 115 234 113 L 231 113 L 230 112 L 219 112 Z M 323 112 Q 322 114 320 113 L 319 114 L 317 114 L 312 117 L 311 117 L 309 119 L 308 119 L 300 128 L 299 131 L 298 132 L 298 134 L 297 135 L 297 138 L 296 139 L 296 150 Q 298 150 297 153 L 298 154 L 298 156 L 301 161 L 301 162 L 303 164 L 303 165 L 312 172 L 315 173 L 316 174 L 318 174 L 319 175 L 322 175 L 323 176 L 334 176 Q 334 175 337 175 L 338 174 L 340 174 L 345 171 L 346 171 L 348 169 L 349 169 L 356 161 L 357 158 L 358 157 L 358 155 L 359 154 L 359 151 L 360 150 L 360 139 Q 359 138 359 136 L 358 135 L 358 133 Q 356 130 355 127 L 353 125 L 353 124 L 349 119 L 348 119 L 345 116 L 342 115 L 341 114 Q 338 115 338 113 L 335 113 L 334 112 L 323 112 Z M 139 176 Q 138 178 136 177 L 135 178 L 133 178 Q 130 180 127 181 L 125 183 L 124 183 L 116 192 L 115 195 L 114 196 L 114 198 L 113 199 L 113 202 L 112 203 L 112 214 Q 114 214 113 217 L 114 218 L 114 220 L 117 225 L 117 226 L 119 228 L 119 229 L 128 236 L 131 237 L 132 238 L 134 238 L 135 239 L 138 239 L 139 240 L 150 240 Q 150 239 153 239 L 154 238 L 156 238 L 161 235 L 162 235 L 164 233 L 165 233 L 172 225 L 173 222 L 174 221 L 174 219 L 175 218 L 175 215 L 176 214 L 176 203 Q 175 202 175 200 L 174 199 L 174 197 L 171 192 L 171 191 L 169 189 L 169 188 L 165 183 L 164 183 L 161 180 L 158 179 L 157 178 Q 154 179 154 177 L 151 177 L 150 176 L 139 176 Z M 147 279 Q 146 281 144 280 L 143 281 L 141 281 L 136 284 L 135 284 L 133 286 L 132 286 L 124 295 L 123 298 L 122 299 L 122 301 L 121 302 L 121 305 L 120 306 L 120 317 Q 122 317 121 320 L 122 321 L 122 323 L 125 328 L 125 329 L 127 331 L 127 332 L 136 339 L 139 340 L 140 341 L 142 341 L 143 342 L 146 342 L 147 343 L 158 343 Q 158 342 161 342 L 162 341 L 164 341 L 169 338 L 170 338 L 172 336 L 173 336 L 180 328 L 181 325 L 182 324 L 182 322 L 183 321 L 183 318 L 184 317 L 184 306 Q 183 305 183 303 L 182 302 L 182 300 L 179 295 L 179 294 L 177 292 L 177 291 L 173 286 L 172 286 L 169 283 L 166 282 L 165 281 Q 162 282 162 280 L 159 280 L 158 279 L 147 279 Z M 250 319 L 249 320 L 245 320 Q 244 322 242 321 L 241 322 L 239 322 L 232 326 L 231 326 L 224 332 L 223 332 L 214 343 L 212 348 L 211 349 Q 212 351 210 352 L 210 354 L 209 355 L 209 359 L 208 360 L 208 374 L 209 375 L 209 379 Q 211 379 210 382 L 211 383 L 211 385 L 215 392 L 215 393 L 221 400 L 221 401 L 232 409 L 237 411 L 238 412 Q 240 412 241 413 L 243 413 L 244 414 L 248 414 L 249 415 L 263 415 L 264 414 L 268 414 Q 268 413 271 413 L 272 412 L 274 412 L 281 408 L 282 408 L 289 402 L 290 402 L 298 392 L 300 387 L 301 386 Q 301 383 302 383 L 302 381 L 303 380 L 303 376 L 304 375 L 304 361 L 303 360 L 303 356 Q 302 355 302 353 L 301 352 L 301 350 L 297 343 L 297 342 L 291 335 L 291 334 Q 291 332 289 332 L 284 327 L 283 327 L 281 325 L 276 323 L 275 322 Q 272 323 272 321 L 270 321 L 269 320 L 265 320 L 264 319 L 250 319 Z " /><path fill="#000000" stroke="rgb(0,0,0)" stroke-width="0" opacity="0" d="M 0 0 L 0.5 0 L 511.5 0 L 512 0 L 512 0.5 L 512 511.5 L 512 512 L 511.5 512 L 0.5 512 L 0 512 L 0 511.5 L 0 0.5 L 0 0 Z M 273 48 L 272 49 L 260 49 L 259 50 L 252 50 L 251 51 L 246 51 L 245 52 L 240 52 L 239 53 L 235 53 L 234 54 L 230 54 Q 229 56 226 55 L 225 56 L 222 56 L 221 57 L 218 57 Q 217 59 215 58 L 214 59 L 211 59 Q 210 61 208 60 L 207 61 L 205 61 L 204 62 L 202 62 L 201 63 L 199 63 L 196 65 L 194 65 L 191 67 L 189 67 L 186 69 L 184 69 L 161 81 L 160 81 L 158 83 L 153 85 L 142 93 L 141 93 L 139 95 L 138 95 L 136 97 L 135 97 L 132 100 L 131 100 L 121 109 L 120 109 L 112 117 L 111 117 L 94 135 L 94 136 L 90 140 L 90 141 L 84 148 L 84 149 L 81 152 L 81 153 L 78 157 L 78 158 L 76 160 L 75 163 L 73 165 L 67 178 L 66 179 L 66 180 L 65 181 L 65 182 L 64 183 L 64 184 L 63 185 L 63 187 L 61 190 L 61 192 L 59 195 Q 60 197 58 198 L 58 200 L 57 201 L 57 203 L 56 204 L 56 207 Q 55 207 55 210 L 54 211 Q 55 214 53 215 L 53 218 L 52 219 L 52 223 L 51 224 L 51 229 L 50 230 L 50 236 L 49 237 L 49 248 L 48 249 L 48 270 L 49 271 L 49 281 L 50 282 L 50 289 L 51 290 L 51 294 L 52 295 L 52 299 Q 54 299 53 303 L 54 304 L 54 307 L 55 308 L 55 311 Q 57 311 56 314 L 57 315 L 57 317 L 58 318 L 58 320 L 59 321 L 59 323 L 60 324 L 60 326 L 62 329 L 62 331 L 65 336 L 65 338 L 69 345 L 69 346 L 71 348 L 73 353 L 76 357 L 76 358 L 84 369 L 84 370 L 90 377 L 90 378 L 95 383 L 95 384 L 118 406 L 119 406 L 124 411 L 125 411 L 136 420 L 137 420 L 139 422 L 140 422 L 142 424 L 143 424 L 145 426 L 148 427 L 150 429 L 153 430 L 155 432 L 168 438 L 169 439 L 170 439 L 171 440 L 172 440 L 173 441 L 175 441 L 182 445 Q 184 445 185 446 L 187 446 L 190 448 Q 192 448 193 449 L 195 449 L 196 450 L 198 450 L 199 451 L 201 451 L 202 452 L 204 452 L 205 453 L 208 453 Q 208 455 211 454 L 212 455 Q 215 454 216 456 L 219 456 L 220 457 L 223 457 L 224 458 L 228 458 L 229 459 L 233 459 L 234 460 L 239 460 L 240 461 L 246 461 L 247 462 L 254 462 L 255 463 L 267 463 L 268 464 L 295 464 L 296 463 L 308 463 L 309 462 L 317 462 L 318 461 L 324 461 L 325 460 L 330 460 L 331 459 L 335 459 L 336 458 L 340 458 Q 340 456 344 457 L 345 456 L 348 456 L 349 455 L 352 455 Q 352 454 355 454 L 356 453 L 359 453 Q 359 452 362 452 L 363 451 L 365 451 L 366 450 L 368 450 L 369 449 L 371 449 L 374 447 Q 376 448 377 446 L 379 446 L 386 442 L 388 442 L 401 435 L 402 435 L 404 433 L 409 431 L 411 429 L 414 428 L 425 420 L 426 420 L 430 416 L 431 416 L 434 413 L 435 413 L 447 401 L 447 400 L 449 398 L 452 391 L 453 390 Q 453 387 454 387 L 454 384 L 455 383 L 455 379 L 456 378 L 456 368 L 455 367 L 455 362 Q 453 361 454 358 L 453 357 Q 454 354 452 354 L 452 352 L 450 349 L 450 348 L 446 343 L 446 342 L 439 334 L 438 334 L 436 332 L 427 328 L 426 327 Q 423 328 423 326 L 420 326 L 419 325 L 416 325 L 415 324 L 410 324 L 409 323 L 405 323 L 404 322 L 401 322 L 398 320 L 397 320 L 390 314 L 389 311 L 388 310 L 388 305 L 390 302 L 390 301 L 399 292 L 400 292 L 408 284 L 409 284 L 417 276 L 418 276 L 437 257 L 437 256 L 441 252 L 441 251 L 443 249 L 443 248 L 448 242 L 454 229 L 455 228 L 455 226 L 457 223 Q 457 220 458 220 L 458 218 L 459 217 L 459 215 L 460 214 Q 459 210 461 210 L 461 207 L 462 206 L 462 201 L 463 200 L 463 191 L 464 190 L 464 178 L 463 177 L 463 168 L 462 167 L 462 162 L 461 161 L 461 157 Q 460 156 460 154 L 459 153 L 459 150 Q 458 149 458 147 L 456 144 L 456 142 Q 455 141 455 140 L 454 139 L 454 137 L 452 135 L 448 126 L 442 118 L 442 117 L 437 112 L 437 111 L 422 95 L 421 95 L 412 87 L 411 87 L 409 85 L 408 85 L 406 83 L 405 83 L 403 81 L 400 80 L 395 76 L 382 70 L 381 69 L 380 69 L 379 68 L 378 68 L 377 67 L 376 67 L 375 66 L 373 66 L 368 63 L 366 63 Q 365 62 364 62 L 363 61 Q 360 62 360 60 L 358 60 L 357 59 L 354 59 Q 353 58 351 58 L 350 57 L 348 57 L 347 56 Q 343 57 343 55 L 340 55 L 339 54 L 335 54 Q 334 52 331 53 L 330 52 L 326 52 L 325 51 L 319 51 L 318 50 L 310 50 L 309 49 L 295 49 L 294 48 L 273 48 Z " /><path fill="#000000" stroke="rgb(0,0,0)" stroke-width="0" opacity="0" d="M 218.5 112 L 229.5 112 L 230.5 113 L 233.5 113 Q 234 114.5 236.5 114 L 237.5 115 L 240.5 116 L 243.5 119 L 244.5 119 L 249 123.5 L 249 124.5 L 251 126.5 Q 251.8 130.2 254 132.5 L 254 134.5 L 255 135.5 Q 254.5 138 256 138.5 L 256 149.5 L 255 150.5 L 255 153.5 L 254 154.5 L 254 156.5 L 253 157.5 L 252 160.5 L 244.5 169 L 243.5 169 L 241.5 171 L 240.5 171 L 235.5 174 L 233.5 174 L 232.5 175 Q 230 174.5 229.5 176 L 218.5 176 L 217.5 175 L 214.5 175 L 213.5 174 L 211.5 174 L 210.5 173 L 207.5 172 L 199 164.5 L 199 163.5 L 197 161.5 L 197 160.5 L 194 155.5 L 194 153.5 L 193 152.5 Q 193.5 150 192 149.5 L 192 138.5 L 193 137.5 L 193 134.5 L 194 133.5 L 194 131.5 L 195 130.5 L 196 127.5 L 203.5 119 L 204.5 119 L 206.5 117 L 207.5 117 L 212.5 114 L 214.5 114 L 215.5 113 Q 218 113.5 218.5 112 Z " /><path fill="#000000" stroke="rgb(0,0,0)" stroke-width="0" opacity="0" d="M 322.5 112 L 333.5 112 L 334.5 113 L 337.5 113 Q 338 114.5 340.5 114 L 341.5 115 L 344.5 116 L 347.5 119 L 348.5 119 L 353 123.5 L 353 124.5 L 355 126.5 Q 355.8 130.2 358 132.5 L 358 134.5 L 359 135.5 Q 358.5 138 360 138.5 L 360 149.5 L 359 150.5 L 359 153.5 L 358 154.5 L 358 156.5 L 357 157.5 L 356 160.5 L 348.5 169 L 347.5 169 L 345.5 171 L 344.5 171 L 339.5 174 L 337.5 174 L 336.5 175 Q 334 174.5 333.5 176 L 322.5 176 L 321.5 175 L 318.5 175 L 317.5 174 L 315.5 174 L 314.5 173 L 311.5 172 L 303 164.5 L 303 163.5 L 301 161.5 L 301 160.5 L 298 155.5 L 298 153.5 L 297 152.5 Q 297.5 150 296 149.5 L 296 138.5 L 297 137.5 L 297 134.5 L 298 133.5 L 298 131.5 L 299 130.5 L 300 127.5 L 307.5 119 L 308.5 119 L 310.5 117 L 311.5 117 L 316.5 114 L 318.5 114 L 319.5 113 Q 322 113.5 322.5 112 Z " /><path fill="#000000" stroke="rgb(0,0,0)" stroke-width="0" opacity="0" d="M 138.5 176 L 149.5 176 L 150.5 177 L 153.5 177 Q 154 178.5 156.5 178 L 157.5 179 L 160.5 180 L 163.5 183 L 164.5 183 L 169 187.5 L 169 188.5 L 171 190.5 L 171 191.5 L 174 196.5 L 174 198.5 L 175 199.5 Q 174.5 202 176 202.5 L 176 213.5 L 175 214.5 L 175 217.5 L 174 218.5 L 174 220.5 L 173 221.5 L 172 224.5 L 164.5 233 L 163.5 233 L 161.5 235 L 160.5 235 L 155.5 238 L 153.5 238 L 152.5 239 Q 150 238.5 149.5 240 L 138.5 240 L 137.5 239 L 134.5 239 L 133.5 238 L 131.5 238 L 130.5 237 L 127.5 236 L 119 228.5 L 119 227.5 L 117 225.5 L 117 224.5 L 114 219.5 L 114 217.5 L 113 216.5 Q 113.5 214 112 213.5 L 112 202.5 L 113 201.5 L 113 198.5 L 114 197.5 L 114 195.5 L 115 194.5 L 116 191.5 L 123.5 183 L 124.5 183 L 126.5 181 Q 130.2 180.2 132.5 178 L 134.5 178 L 135.5 177 Q 138 177.5 138.5 176 Z " /><path fill="#000000" stroke="rgb(0,0,0)" stroke-width="0" opacity="0" d="M 146.5 279 L 157.5 279 L 158.5 280 L 161.5 280 Q 162 281.5 164.5 281 L 165.5 282 L 168.5 283 L 171.5 286 L 172.5 286 L 177 290.5 L 177 291.5 L 179 293.5 L 179 294.5 L 182 299.5 L 182 301.5 L 183 302.5 Q 182.5 305 184 305.5 L 184 316.5 L 183 317.5 L 183 320.5 L 182 321.5 L 182 323.5 L 181 324.5 L 180 327.5 L 172.5 336 L 171.5 336 L 169.5 338 L 168.5 338 L 163.5 341 L 161.5 341 L 160.5 342 Q 158 341.5 157.5 343 L 146.5 343 L 145.5 342 L 142.5 342 L 141.5 341 L 139.5 341 L 138.5 340 L 135.5 339 L 127 331.5 L 127 330.5 L 125 328.5 L 125 327.5 L 122 322.5 L 122 320.5 L 121 319.5 Q 121.5 317 120 316.5 L 120 305.5 L 121 304.5 L 121 301.5 L 122 300.5 L 122 298.5 L 123 297.5 L 124 294.5 L 131.5 286 L 132.5 286 L 134.5 284 L 135.5 284 L 140.5 281 L 142.5 281 L 143.5 280 Q 146 280.5 146.5 279 Z " /><path fill="#000000" stroke="rgb(0,0,0)" stroke-width="0" opacity="0" d="M 249.5 319 L 263.5 319 L 264.5 320 L 268.5 320 L 269.5 321 L 271.5 321 Q 272 322.5 274.5 322 L 275.5 323 L 280.5 325 L 282.5 327 L 283.5 327 L 288.5 332 Q 290.8 331.8 291 333.5 L 291 334.5 L 297 341.5 L 297 342.5 L 301 349.5 L 301 351.5 L 302 352.5 Q 301.5 355 303 355.5 L 303 359.5 L 304 360.5 L 304 374.5 L 303 375.5 L 303 379.5 L 302 380.5 L 302 382.5 Q 300.5 383 301 385.5 L 300 386.5 L 298 391.5 L 289.5 402 L 288.5 402 L 281.5 408 L 280.5 408 L 273.5 412 L 271.5 412 L 270.5 413 Q 268 412.5 267.5 414 L 263.5 414 L 262.5 415 L 248.5 415 L 247.5 414 L 243.5 414 L 242.5 413 L 240.5 413 Q 240 411.5 237.5 412 L 236.5 411 L 231.5 409 L 221 400.5 L 221 399.5 L 215 392.5 L 215 391.5 L 211 384.5 L 211 382.5 L 210 381.5 Q 210.5 379 209 378.5 L 209 374.5 L 208 373.5 L 208 359.5 L 209 358.5 L 209 354.5 L 210 353.5 L 210 351.5 Q 211.5 351 211 348.5 L 212 347.5 L 214 342.5 L 222.5 332 L 223.5 332 L 230.5 326 L 231.5 326 L 238.5 322 L 240.5 322 L 241.5 321 Q 244 321.5 244.5 320 L 248.5 320 L 249.5 319 Z " /></svg>