<svg viewBox="0 0 512 512" version="1.1" xmlns="http://www.w3.org/2000/svg" desc="Created with imagetracer.js version 1.2.6" ><path fill="#000000" stroke="rgb(0,0,0)" stroke-width="0" opacity="1" d="M 253.5 32 L 257.5 32 Q 258.2 33.8 261.5 33 L 268 37.5 L 268 38.5 L 270 40.5 Q 269.7 42.2 271 42.5 L 271 44.5 L 272 45.5 L 272 312.5 L 272.5 313 L 326.5 259 L 327.5 259 L 330.5 257 L 332.5 257 L 333.5 256 L 337.5 256 L 338.5 257 L 341.5 257 Q 341.7 258.2 343.5 258 L 348 261.5 L 348 262.5 L 350 264.5 Q 349.7 266.2 351 266.5 L 351 268.5 L 352 269.5 L 352 274.5 L 351 275.5 L 351 277.5 L 348 281.5 L 348 282.5 L 266.5 364 L 265.5 364 L 263.5 366 Q 261.7 365.7 261.5 367 L 259.5 367 L 258.5 368 L 253.5 368 L 252.5 367 L 250.5 367 L 246.5 364 L 245.5 364 L 164 282.5 L 164 281.5 L 162 279.5 Q 162.2 277.7 161 277.5 L 161 275.5 L 160 274.5 L 160 269.5 L 161 268.5 L 161 266.5 Q 162.3 266.3 162 264.5 L 166.5 259 L 167.5 259 L 170.5 257 L 172.5 257 L 173.5 256 L 177.5 256 Q 178.3 257.8 181.5 257 L 185.5 260 L 186.5 260 L 239.5 313 L 240 312.5 L 240 45.5 L 241 44.5 L 241 42.5 Q 242.3 42.3 242 40.5 L 246.5 35 L 247.5 35 L 250.5 33 L 252.5 33 L 253.5 32 Z " /><path fill="#000000" stroke="rgb(0,0,0)" stroke-width="0" opacity="1" d="M 131.5 160 L 177.5 160 L 178.5 161 L 181.5 161 Q 181.7 162.3 183.5 162 L 188 165.5 L 188 166.5 L 190 168.5 Q 189.7 170.2 191 170.5 L 191 172.5 L 192 173.5 L 192 178.5 L 191 179.5 L 191 181.5 Q 189.7 181.7 190 183.5 L 185.5 189 L 184.5 189 L 181.5 191 L 179.5 191 L 178.5 192 L 131.5 192 L 130.5 193 L 128.5 193 L 127.5 194 L 125.5 194 Q 125.3 195.3 123.5 195 L 117 200.5 L 117 201.5 L 115 203.5 L 115 204.5 L 113 207.5 L 113 209.5 L 112 210.5 L 112 428.5 L 113 429.5 L 113 431.5 L 114 432.5 L 114 434.5 Q 115.2 434.8 115 436.5 L 120.5 443 L 121.5 443 L 123.5 445 L 124.5 445 L 127.5 447 L 129.5 447 L 130.5 448 L 380.5 448 L 381.5 447 L 383.5 447 L 384.5 446 L 386.5 446 Q 386.7 444.7 388.5 445 L 397 436.5 L 397 435.5 L 399 432.5 L 399 430.5 L 400 429.5 L 400 211.5 L 399 210.5 L 399 208.5 L 398 207.5 L 398 205.5 Q 396.8 205.2 397 203.5 L 388.5 195 L 387.5 195 L 384.5 193 L 382.5 193 L 381.5 192 L 334.5 192 L 333.5 191 L 330.5 191 Q 330.2 189.7 328.5 190 L 324 186.5 L 324 185.5 L 322 183.5 Q 322.2 181.7 321 181.5 L 321 179.5 L 320 178.5 L 320 173.5 L 321 172.5 L 321 170.5 Q 322.3 170.3 322 168.5 L 326.5 163 L 327.5 163 L 330.5 161 L 332.5 161 L 333.5 160 L 379.5 160 L 380.5 161 L 386.5 161 L 387.5 162 L 390.5 162 Q 391.3 163.8 394.5 163 L 395.5 164 L 406.5 169 L 408.5 171 L 409.5 171 L 421 182.5 L 421 183.5 L 425 188.5 L 425 189.5 L 427 192.5 L 427 194.5 L 429 197.5 Q 428.5 200 430 200.5 L 430 203.5 L 431 204.5 L 431 210.5 L 432 211.5 L 432 427.5 L 431 428.5 L 431 434.5 L 430 435.5 L 430 438.5 Q 428.3 439.3 429 442.5 L 428 443.5 L 423 454.5 L 421 456.5 L 421 457.5 L 409.5 469 L 408.5 469 L 403.5 473 L 402.5 473 L 399.5 475 L 397.5 475 L 394.5 477 Q 392 476.5 391.5 478 L 388.5 478 L 387.5 479 L 381.5 479 L 380.5 480 L 132.5 480 L 131.5 479 L 125.5 479 L 124.5 478 L 121.5 478 Q 120.8 476.3 117.5 477 L 110.5 473 L 108.5 473 L 106.5 471 L 105.5 471 L 103.5 469 L 102.5 469 L 91 457.5 L 91 456.5 L 87 451.5 L 87 450.5 L 85 447.5 L 85 445.5 L 83 442.5 Q 83.5 440 82 439.5 L 82 436.5 L 81 435.5 L 81 429.5 L 80 428.5 L 80 212.5 L 81 211.5 L 81 205.5 L 82 204.5 L 82 201.5 Q 83.8 200.8 83 197.5 L 87 190.5 L 87 188.5 L 89 186.5 L 89 185.5 L 91 183.5 L 91 182.5 L 102.5 171 L 103.5 171 L 108.5 167 L 109.5 167 L 112.5 165 L 114.5 165 L 117.5 163 Q 120 163.5 120.5 162 L 123.5 162 L 124.5 161 L 130.5 161 L 131.5 160 Z " /><path fill="#000000" stroke="rgb(0,0,0)" stroke-width="0" opacity="0" d="M 0 0 L 0.5 0 L 511.5 0 L 512 0 L 512 0.5 L 512 511.5 L 512 512 L 511.5 512 L 0.5 512 L 0 512 L 0 511.5 L 0 0.5 L 0 0 Z M 254 32 L 253 33 L 251 33 L 248 35 L 247 35 L 242 41 Q 242 42 241 43 L 241 45 L 240 46 L 240 313 L 240 313 L 187 260 L 186 260 L 182 257 Q 178 258 178 256 L 174 256 L 173 257 L 171 257 L 168 259 L 167 259 L 162 265 Q 162 266 161 267 L 161 269 L 160 270 L 160 275 L 161 276 L 161 278 Q 162 278 162 280 L 164 282 L 164 283 L 246 364 L 247 364 L 251 367 L 253 367 L 254 368 L 259 368 L 260 367 L 262 367 Q 262 366 264 366 L 266 364 L 267 364 L 348 283 L 348 282 L 351 278 L 351 276 L 352 275 L 352 270 L 351 269 L 351 267 Q 350 266 350 265 L 348 263 L 348 262 L 344 258 Q 342 258 342 257 L 339 257 L 338 256 L 334 256 L 333 257 L 331 257 L 328 259 L 327 259 L 273 313 L 272 313 L 272 46 L 271 45 L 271 43 Q 270 42 270 41 L 268 39 L 268 38 L 262 33 Q 258 34 258 32 L 254 32 Z M 132 160 L 131 161 L 125 161 L 124 162 L 121 162 Q 120 164 118 163 L 115 165 L 113 165 L 110 167 L 109 167 L 104 171 L 103 171 L 91 183 L 91 184 L 89 186 L 89 187 L 87 189 L 87 191 L 83 198 Q 84 201 82 202 L 82 205 L 81 206 L 81 212 L 80 213 L 80 429 L 81 430 L 81 436 L 82 437 L 82 440 Q 84 440 83 443 L 85 446 L 85 448 L 87 451 L 87 452 L 91 457 L 91 458 L 103 469 L 104 469 L 106 471 L 107 471 L 109 473 L 111 473 L 118 477 Q 121 476 122 478 L 125 478 L 126 479 L 132 479 L 133 480 L 381 480 L 382 479 L 388 479 L 389 478 L 392 478 Q 392 477 395 477 L 398 475 L 400 475 L 403 473 L 404 473 L 409 469 L 410 469 L 421 458 L 421 457 L 423 455 L 428 444 L 429 443 Q 428 439 430 439 L 430 436 L 431 435 L 431 429 L 432 428 L 432 212 L 431 211 L 431 205 L 430 204 L 430 201 Q 429 200 429 198 L 427 195 L 427 193 L 425 190 L 425 189 L 421 184 L 421 183 L 410 171 L 409 171 L 407 169 L 396 164 L 395 163 Q 391 164 391 162 L 388 162 L 387 161 L 381 161 L 380 160 L 334 160 L 333 161 L 331 161 L 328 163 L 327 163 L 322 169 Q 322 170 321 171 L 321 173 L 320 174 L 320 179 L 321 180 L 321 182 Q 322 182 322 184 L 324 186 L 324 187 L 329 190 Q 330 190 331 191 L 334 191 L 335 192 L 382 192 L 383 193 L 385 193 L 388 195 L 389 195 L 397 204 Q 397 205 398 206 L 398 208 L 399 209 L 399 211 L 400 212 L 400 430 L 399 431 L 399 433 L 397 436 L 397 437 L 389 445 Q 387 445 387 446 L 385 446 L 384 447 L 382 447 L 381 448 L 131 448 L 130 447 L 128 447 L 125 445 L 124 445 L 122 443 L 121 443 L 115 437 Q 115 435 114 435 L 114 433 L 113 432 L 113 430 L 112 429 L 112 211 L 113 210 L 113 208 L 115 205 L 115 204 L 117 202 L 117 201 L 124 195 Q 125 195 126 194 L 128 194 L 129 193 L 131 193 L 132 192 L 179 192 L 180 191 L 182 191 L 185 189 L 186 189 L 190 184 Q 190 182 191 182 L 191 180 L 192 179 L 192 174 L 191 173 L 191 171 Q 190 170 190 169 L 188 167 L 188 166 L 184 162 Q 182 162 182 161 L 179 161 L 178 160 L 132 160 Z " /></svg>