<svg viewBox="0 0 512 512" version="1.1" xmlns="http://www.w3.org/2000/svg" desc="Created with imagetracer.js version 1.2.6" ><path fill="#000000" stroke="rgb(0,0,0)" stroke-width="0" opacity="1" d="M 249.5 16 L 262.5 16 L 263.5 17 L 270.5 17 L 271.5 18 L 276.5 18 L 277.5 19 L 280.5 19 L 281.5 20 L 283.5 20 L 284.5 21 L 286.5 21 Q 287 22.5 289.5 22 L 294.5 25 L 296.5 25 L 297.5 26 L 302.5 28 L 304.5 30 L 307.5 31 L 309.5 33 L 310.5 33 L 312.5 35 L 313.5 35 L 317.5 39 L 318.5 39 L 329 49.5 L 329 50.5 L 333 54.5 L 333 55.5 L 336 58.5 L 337 61.5 L 339 63.5 L 339 64.5 L 345 75.5 L 345 77.5 L 347 80.5 Q 346.5 83 348 83.5 L 348 86.5 L 349 87.5 Q 348.5 90 350 90.5 L 350 95.5 L 351 96.5 L 351 104.5 L 352 105.5 L 352 114.5 L 351 115.5 L 351 117.5 Q 349.8 117.7 350 119.5 L 345.5 125 L 344.5 125 L 341.5 127 L 339.5 127 L 338.5 128 L 334.5 128 L 333.5 127 L 330.5 127 Q 330.2 125.7 328.5 126 L 324 122.5 L 324 121.5 L 322 119.5 Q 322.2 117.7 321 117.5 L 321 115.5 L 320 114.5 L 320 104.5 L 319 103.5 L 319 98.5 L 318 97.5 L 318 94.5 L 317 93.5 L 317 91.5 L 315 88.5 L 315 86.5 L 314 85.5 L 312 80.5 L 310 78.5 L 309 75.5 L 306 72.5 L 306 71.5 L 295.5 61 L 294.5 61 L 291.5 58 L 286.5 56 L 284.5 54 L 282.5 54 L 277.5 51 L 274.5 51 L 273.5 50 Q 271 50.5 270.5 49 L 265.5 49 L 264.5 48 L 248.5 48 L 247.5 49 L 242.5 49 Q 241.8 50.8 238.5 50 L 237.5 51 L 235.5 51 L 232.5 53 L 230.5 53 L 229.5 54 L 224.5 56 L 222.5 58 L 219.5 59 L 216.5 62 L 215.5 62 L 205 72.5 L 205 73.5 L 202 76.5 L 200 81.5 L 198 83.5 L 198 85.5 L 195 90.5 L 195 93.5 L 194 94.5 Q 194.5 97 193 97.5 L 193 102.5 L 192 103.5 L 192 191.5 L 192 192 L 192.5 192 L 372.5 192 L 373.5 193 L 379.5 193 L 380.5 194 L 383.5 194 L 384.5 195 L 387.5 195 L 390.5 197 L 392.5 197 L 393.5 198 L 400.5 201 L 402.5 203 L 405.5 204 L 411.5 210 L 412.5 210 L 415 212.5 L 415 213.5 L 420 218.5 L 420 219.5 L 422 221.5 L 423 224.5 L 425 226.5 L 425 227.5 L 427 230.5 L 427 232.5 L 429 235.5 L 429 238.5 Q 430.8 239.3 430 242.5 L 431 243.5 L 431 250.5 L 432 251.5 L 432 436.5 L 431 437.5 L 431 443.5 L 430 444.5 L 430 447.5 L 429 448.5 L 429 451.5 L 427 454.5 L 427 456.5 L 426 457.5 L 423 464.5 L 421 466.5 L 420 469.5 L 414 475.5 L 414 476.5 L 411.5 479 L 410.5 479 L 405.5 484 L 404.5 484 L 402.5 486 L 399.5 487 L 397.5 489 L 396.5 489 L 393.5 491 L 391.5 491 L 388.5 493 L 385.5 493 Q 384.7 494.8 381.5 494 L 380.5 495 L 373.5 495 L 372.5 496 L 139.5 496 L 138.5 495 L 132.5 495 L 131.5 494 L 128.5 494 L 127.5 493 L 124.5 493 L 121.5 491 L 119.5 491 L 118.5 490 L 111.5 487 L 109.5 485 L 106.5 484 L 100.5 478 L 99.5 478 L 97 475.5 L 97 474.5 L 92 469.5 L 92 468.5 L 90 466.5 L 89 463.5 L 87 461.5 L 87 460.5 L 85 457.5 L 85 455.5 L 83 452.5 L 83 449.5 Q 81.3 448.7 82 445.5 L 81 444.5 L 81 437.5 L 80 436.5 L 80 251.5 L 81 250.5 L 81 244.5 L 82 243.5 L 82 240.5 L 83 239.5 L 83 236.5 L 85 233.5 L 85 231.5 L 86 230.5 L 89 223.5 L 91 221.5 L 92 218.5 L 98 212.5 L 98 211.5 L 100.5 209 L 101.5 209 L 106.5 204 L 107.5 204 L 109.5 202 L 110.5 202 L 114.5 199 L 115.5 199 L 118.5 197 L 120.5 197 L 123.5 195 L 126.5 195 L 127.5 194 Q 130.8 194.8 131.5 193 L 138.5 193 L 139.5 192 L 159.5 192 L 160 192 L 160 191.5 L 160 105.5 L 161 104.5 L 161 97.5 L 162 96.5 L 162 91.5 L 163 90.5 L 163 87.5 L 164 86.5 L 164 84.5 L 165 83.5 L 165 81.5 Q 166.5 81 166 78.5 L 169 73.5 L 169 71.5 L 170 70.5 L 172 65.5 L 174 63.5 L 175 60.5 L 177 58.5 L 177 57.5 L 179 55.5 L 179 54.5 L 183 50.5 L 183 49.5 L 193.5 39 L 194.5 39 L 202.5 32 L 205.5 31 L 207.5 29 L 208.5 29 L 219.5 23 L 221.5 23 L 224.5 21 Q 227 21.5 227.5 20 L 230.5 20 L 231.5 19 Q 234 19.5 234.5 18 L 239.5 18 L 240.5 17 L 248.5 17 L 249.5 16 Z M 139 224 Q 138 226 135 225 L 132 227 L 130 227 L 125 231 L 124 231 L 118 237 L 118 238 L 116 240 L 115 243 L 114 244 L 114 246 L 113 247 L 113 250 L 112 251 L 112 438 Q 114 438 113 442 L 115 445 L 115 447 L 119 452 L 119 453 L 125 458 L 126 458 L 128 460 L 131 461 L 132 462 L 134 462 L 135 463 L 138 463 L 139 464 L 374 464 Q 374 462 378 463 L 381 461 L 383 461 L 388 457 L 389 457 L 394 452 L 394 451 L 396 449 L 397 446 L 398 445 L 398 443 L 399 442 L 399 439 L 400 438 L 400 251 Q 398 250 399 247 L 397 244 L 397 242 L 393 237 L 393 236 L 388 230 L 387 230 L 385 228 L 382 227 L 381 226 L 379 226 L 378 225 L 375 225 L 374 224 L 139 224 Z " /><path fill="#000000" stroke="rgb(0,0,0)" stroke-width="0" opacity="0" d="M 0 0 L 0.5 0 L 511.5 0 L 512 0 L 512 0.5 L 512 511.5 L 512 512 L 511.5 512 L 0.5 512 L 0 512 L 0 511.5 L 0 0.5 L 0 0 Z M 250 16 L 249 17 L 241 17 L 240 18 L 235 18 Q 234 20 232 19 L 231 20 L 228 20 Q 227 22 225 21 L 222 23 L 220 23 L 209 29 L 208 29 L 206 31 L 203 32 L 195 39 L 194 39 L 183 50 L 183 51 L 179 55 L 179 56 L 177 58 L 177 59 L 175 61 L 174 64 L 172 66 L 170 71 L 169 72 L 169 74 L 166 79 Q 167 81 165 82 L 165 84 L 164 85 L 164 87 L 163 88 L 163 91 L 162 92 L 162 97 L 161 98 L 161 105 L 160 106 L 160 192 L 160 192 L 160 192 L 140 192 L 139 193 L 132 193 Q 131 195 128 194 L 127 195 L 124 195 L 121 197 L 119 197 L 116 199 L 115 199 L 111 202 L 110 202 L 108 204 L 107 204 L 102 209 L 101 209 L 98 212 L 98 213 L 92 219 L 91 222 L 89 224 L 86 231 L 85 232 L 85 234 L 83 237 L 83 240 L 82 241 L 82 244 L 81 245 L 81 251 L 80 252 L 80 437 L 81 438 L 81 445 L 82 446 Q 81 449 83 450 L 83 453 L 85 456 L 85 458 L 87 461 L 87 462 L 89 464 L 90 467 L 92 469 L 92 470 L 97 475 L 97 476 L 100 478 L 101 478 L 107 484 L 110 485 L 112 487 L 119 490 L 120 491 L 122 491 L 125 493 L 128 493 L 129 494 L 132 494 L 133 495 L 139 495 L 140 496 L 373 496 L 374 495 L 381 495 L 382 494 Q 385 495 386 493 L 389 493 L 392 491 L 394 491 L 397 489 L 398 489 L 400 487 L 403 486 L 405 484 L 406 484 L 411 479 L 412 479 L 414 477 L 414 476 L 420 470 L 421 467 L 423 465 L 426 458 L 427 457 L 427 455 L 429 452 L 429 449 L 430 448 L 430 445 L 431 444 L 431 438 L 432 437 L 432 252 L 431 251 L 431 244 L 430 243 Q 431 239 429 239 L 429 236 L 427 233 L 427 231 L 425 228 L 425 227 L 423 225 L 422 222 L 420 220 L 420 219 L 415 214 L 415 213 L 413 210 L 412 210 L 406 204 L 403 203 L 401 201 L 394 198 L 393 197 L 391 197 L 388 195 L 385 195 L 384 194 L 381 194 L 380 193 L 374 193 L 373 192 L 193 192 L 192 192 L 192 192 L 192 104 L 193 103 L 193 98 Q 195 97 194 95 L 195 94 L 195 91 L 198 86 L 198 84 L 200 82 L 202 77 L 205 74 L 205 73 L 216 62 L 217 62 L 220 59 L 223 58 L 225 56 L 230 54 L 231 53 L 233 53 L 236 51 L 238 51 L 239 50 Q 242 51 243 49 L 248 49 L 249 48 L 265 48 L 266 49 L 271 49 Q 271 51 274 50 L 275 51 L 278 51 L 283 54 L 285 54 L 287 56 L 292 58 L 295 61 L 296 61 L 306 72 L 306 73 L 309 76 L 310 79 L 312 81 L 314 86 L 315 87 L 315 89 L 317 92 L 317 94 L 318 95 L 318 98 L 319 99 L 319 104 L 320 105 L 320 115 L 321 116 L 321 118 Q 322 118 322 120 L 324 122 L 324 123 L 329 126 Q 330 126 331 127 L 334 127 L 335 128 L 339 128 L 340 127 L 342 127 L 345 125 L 346 125 L 350 120 Q 350 118 351 118 L 351 116 L 352 115 L 352 106 L 351 105 L 351 97 L 350 96 L 350 91 Q 349 90 349 88 L 348 87 L 348 84 Q 347 83 347 81 L 345 78 L 345 76 L 339 65 L 339 64 L 337 62 L 336 59 L 333 56 L 333 55 L 329 51 L 329 50 L 319 39 L 318 39 L 314 35 L 313 35 L 311 33 L 310 33 L 308 31 L 305 30 L 303 28 L 298 26 L 297 25 L 295 25 L 290 22 Q 287 23 287 21 L 285 21 L 284 20 L 282 20 L 281 19 L 278 19 L 277 18 L 272 18 L 271 17 L 264 17 L 263 16 L 250 16 Z " /><path fill="#000000" stroke="rgb(0,0,0)" stroke-width="0" opacity="0" d="M 138.5 224 L 373.5 224 L 374.5 225 L 377.5 225 L 378.5 226 L 380.5 226 L 381.5 227 L 384.5 228 L 386.5 230 L 387.5 230 L 393 235.5 L 393 236.5 L 397 241.5 L 397 243.5 L 399 246.5 Q 398.3 249.8 400 250.5 L 400 437.5 L 399 438.5 L 399 441.5 L 398 442.5 L 398 444.5 L 397 445.5 L 396 448.5 L 394 450.5 L 394 451.5 L 388.5 457 L 387.5 457 L 382.5 461 L 380.5 461 L 377.5 463 Q 374.3 462.3 373.5 464 L 138.5 464 L 137.5 463 L 134.5 463 L 133.5 462 L 131.5 462 L 130.5 461 L 127.5 460 L 125.5 458 L 124.5 458 L 119 452.5 L 119 451.5 L 115 446.5 L 115 444.5 L 113 441.5 Q 113.7 438.3 112 437.5 L 112 250.5 L 113 249.5 L 113 246.5 L 114 245.5 L 114 243.5 L 115 242.5 L 116 239.5 L 118 237.5 L 118 236.5 L 123.5 231 L 124.5 231 L 129.5 227 L 131.5 227 L 134.5 225 Q 137.8 225.7 138.5 224 Z " /></svg>