<svg viewBox="0 0 512 512" version="1.1" xmlns="http://www.w3.org/2000/svg" desc="Created with imagetracer.js version 1.2.6" ><path fill="#000000" stroke="rgb(0,0,0)" stroke-width="0" opacity="1" d="M 308.5 32 L 440.5 32 L 441.5 33 L 445.5 33 L 446.5 34 L 448.5 34 Q 449 35.5 451.5 35 L 452.5 36 L 459.5 39 L 462.5 42 L 463.5 42 L 471 49.5 L 471 50.5 L 473 52.5 L 473 53.5 L 475 55.5 L 475 56.5 L 477 59.5 Q 476.5 62 478 62.5 L 478 65.5 L 479 66.5 L 479 70.5 L 480 71.5 L 480 202.5 L 479 203.5 L 479 207.5 Q 477.5 208 478 210.5 L 477 211.5 L 475 216.5 L 471 220.5 L 471 221.5 L 224.5 468 L 223.5 468 L 216.5 474 L 215.5 474 L 210.5 477 L 208.5 477 L 207.5 478 Q 205 477.5 204.5 479 L 200.5 479 L 199.5 480 L 189.5 480 L 188.5 479 L 183.5 479 L 182.5 478 L 180.5 478 Q 180 476.5 177.5 477 L 176.5 476 L 169.5 473 L 166.5 470 L 165.5 470 L 41 345.5 L 41 344.5 L 37 339.5 Q 37.2 337.7 36 337.5 L 36 335.5 L 34 332.5 Q 34.8 329.3 33 328.5 L 33 324.5 L 32 323.5 L 32 313.5 L 33 312.5 L 33 308.5 L 34 307.5 L 34 304.5 L 36 301.5 L 36 299.5 L 39 295.5 L 40 292.5 L 44 288.5 L 44 287.5 L 291.5 40 L 292.5 40 L 295.5 37 L 296.5 37 L 303.5 33 L 307.5 33 L 308.5 32 Z M 379 96 Q 378 98 376 97 L 375 98 L 373 98 L 368 101 L 367 101 L 365 103 L 364 103 L 356 112 L 355 115 L 354 116 L 354 118 L 353 119 L 353 122 L 352 123 L 352 134 Q 354 134 353 137 L 354 138 L 354 140 L 357 145 L 357 146 L 359 148 L 359 149 L 368 156 L 371 157 L 372 158 L 374 158 L 375 159 L 378 159 L 379 160 L 390 160 Q 390 159 393 159 L 394 158 L 396 158 L 401 155 L 402 155 L 404 153 L 405 153 L 412 145 L 413 142 L 414 141 L 414 139 L 415 138 L 415 135 L 416 134 L 416 123 Q 415 122 415 120 L 414 119 L 414 117 L 411 112 L 411 111 L 409 109 L 409 108 L 405 103 L 404 103 L 401 100 L 398 99 L 397 98 Q 394 99 394 97 L 391 97 L 390 96 L 379 96 Z " /><path fill="#000000" stroke="rgb(0,0,0)" stroke-width="0" opacity="0" d="M 0 0 L 0.5 0 L 511.5 0 L 512 0 L 512 0.5 L 512 511.5 L 512 512 L 511.5 512 L 0.5 512 L 0 512 L 0 511.5 L 0 0.5 L 0 0 Z M 309 32 L 308 33 L 304 33 L 297 37 L 296 37 L 293 40 L 292 40 L 44 288 L 44 289 L 40 293 L 39 296 L 36 300 L 36 302 L 34 305 L 34 308 L 33 309 L 33 313 L 32 314 L 32 324 L 33 325 L 33 329 Q 35 329 34 333 L 36 336 L 36 338 Q 37 338 37 340 L 41 345 L 41 346 L 166 470 L 167 470 L 170 473 L 177 476 L 178 477 Q 180 477 181 478 L 183 478 L 184 479 L 189 479 L 190 480 L 200 480 L 201 479 L 205 479 Q 205 478 208 478 L 209 477 L 211 477 L 216 474 L 217 474 L 224 468 L 225 468 L 471 222 L 471 221 L 475 217 L 477 212 L 478 211 Q 478 208 479 208 L 479 204 L 480 203 L 480 72 L 479 71 L 479 67 L 478 66 L 478 63 Q 477 62 477 60 L 475 57 L 475 56 L 473 54 L 473 53 L 471 51 L 471 50 L 464 42 L 463 42 L 460 39 L 453 36 L 452 35 Q 449 36 449 34 L 447 34 L 446 33 L 442 33 L 441 32 L 309 32 Z " /><path fill="#000000" stroke="rgb(0,0,0)" stroke-width="0" opacity="0" d="M 378.5 96 L 389.5 96 L 390.5 97 L 393.5 97 Q 394 98.5 396.5 98 L 397.5 99 L 400.5 100 L 403.5 103 L 404.5 103 L 409 107.5 L 409 108.5 L 411 110.5 L 411 111.5 L 414 116.5 L 414 118.5 L 415 119.5 Q 414.5 122 416 122.5 L 416 133.5 L 415 134.5 L 415 137.5 L 414 138.5 L 414 140.5 L 413 141.5 L 412 144.5 L 404.5 153 L 403.5 153 L 401.5 155 L 400.5 155 L 395.5 158 L 393.5 158 L 392.5 159 Q 390 158.5 389.5 160 L 378.5 160 L 377.5 159 L 374.5 159 L 373.5 158 L 371.5 158 L 370.5 157 L 367.5 156 L 359 148.5 L 359 147.5 L 357 145.5 L 357 144.5 L 354 139.5 L 354 137.5 L 353 136.5 Q 353.5 134 352 133.5 L 352 122.5 L 353 121.5 L 353 118.5 L 354 117.5 L 354 115.5 L 355 114.5 L 356 111.5 L 363.5 103 L 364.5 103 L 366.5 101 L 367.5 101 L 372.5 98 L 374.5 98 L 375.5 97 Q 378 97.5 378.5 96 Z " /></svg>