<svg viewBox="0 0 512 512" version="1.1" xmlns="http://www.w3.org/2000/svg" desc="Created with imagetracer.js version 1.2.6" ><path fill="#000000" stroke="rgb(0,0,0)" stroke-width="0" opacity="1" d="M 93.5 160 L 417.5 160 L 418.5 161 L 421.5 161 Q 421.8 162.3 423.5 162 L 428 165.5 L 428 166.5 L 430 168.5 Q 429.7 170.2 431 170.5 L 431 172.5 L 432 173.5 L 432 178.5 L 431 179.5 L 431 181.5 Q 429.7 181.7 430 183.5 L 425.5 189 L 424.5 189 L 421.5 191 L 419.5 191 L 418.5 192 L 94.5 192 L 93.5 191 L 90.5 191 Q 90.3 189.7 88.5 190 L 84 186.5 L 84 185.5 L 82 183.5 Q 82.2 181.7 81 181.5 L 81 179.5 L 80 178.5 L 80 173.5 L 81 172.5 L 81 170.5 Q 82.3 170.3 82 168.5 L 86.5 163 L 87.5 163 L 90.5 161 L 92.5 161 L 93.5 160 Z " /><path fill="#000000" stroke="rgb(0,0,0)" stroke-width="0" opacity="1" d="M 93.5 240 L 417.5 240 L 418.5 241 L 421.5 241 Q 421.8 242.3 423.5 242 L 428 245.5 L 428 246.5 L 430 248.5 Q 429.7 250.2 431 250.5 L 431 252.5 L 432 253.5 L 432 258.5 L 431 259.5 L 431 261.5 Q 429.7 261.8 430 263.5 L 425.5 269 L 424.5 269 L 421.5 271 L 419.5 271 L 418.5 272 L 94.5 272 L 93.5 271 L 90.5 271 Q 90.3 269.8 88.5 270 L 84 266.5 L 84 265.5 L 82 263.5 Q 82.2 261.7 81 261.5 L 81 259.5 L 80 258.5 L 80 253.5 L 81 252.5 L 81 250.5 Q 82.3 250.3 82 248.5 L 86.5 243 L 87.5 243 L 90.5 241 L 92.5 241 L 93.5 240 Z " /><path fill="#000000" stroke="rgb(0,0,0)" stroke-width="0" opacity="1" d="M 93.5 320 L 417.5 320 L 418.5 321 L 421.5 321 Q 421.8 322.3 423.5 322 L 428 325.5 L 428 326.5 L 430 328.5 Q 429.7 330.2 431 330.5 L 431 332.5 L 432 333.5 L 432 338.5 L 431 339.5 L 431 341.5 Q 429.7 341.7 430 343.5 L 425.5 349 L 424.5 349 L 421.5 351 L 419.5 351 L 418.5 352 L 94.5 352 L 93.5 351 L 90.5 351 Q 90.3 349.8 88.5 350 L 84 346.5 L 84 345.5 L 82 343.5 Q 82.2 341.7 81 341.5 L 81 339.5 L 80 338.5 L 80 333.5 L 81 332.5 L 81 330.5 Q 82.3 330.2 82 328.5 L 86.5 323 L 87.5 323 L 90.5 321 L 92.5 321 L 93.5 320 Z " /><path fill="#000000" stroke="rgb(0,0,0)" stroke-width="0" opacity="0" d="M 0 0 L 0.5 0 L 511.5 0 L 512 0 L 512 0.5 L 512 511.5 L 512 512 L 511.5 512 L 0.5 512 L 0 512 L 0 511.5 L 0 0.5 L 0 0 Z M 94 160 L 93 161 L 91 161 L 88 163 L 87 163 L 82 169 Q 82 170 81 171 L 81 173 L 80 174 L 80 179 L 81 180 L 81 182 Q 82 182 82 184 L 84 186 L 84 187 L 89 190 Q 90 190 91 191 L 94 191 L 95 192 L 419 192 L 420 191 L 422 191 L 425 189 L 426 189 L 430 184 Q 430 182 431 182 L 431 180 L 432 179 L 432 174 L 431 173 L 431 171 Q 430 170 430 169 L 428 167 L 428 166 L 424 162 Q 422 162 422 161 L 419 161 L 418 160 L 94 160 Z M 94 240 L 93 241 L 91 241 L 88 243 L 87 243 L 82 249 Q 82 250 81 251 L 81 253 L 80 254 L 80 259 L 81 260 L 81 262 Q 82 262 82 264 L 84 266 L 84 267 L 89 270 Q 90 270 91 271 L 94 271 L 95 272 L 419 272 L 420 271 L 422 271 L 425 269 L 426 269 L 430 264 Q 430 262 431 262 L 431 260 L 432 259 L 432 254 L 431 253 L 431 251 Q 430 250 430 249 L 428 247 L 428 246 L 424 242 Q 422 242 422 241 L 419 241 L 418 240 L 94 240 Z M 94 320 L 93 321 L 91 321 L 88 323 L 87 323 L 82 329 Q 82 330 81 331 L 81 333 L 80 334 L 80 339 L 81 340 L 81 342 Q 82 342 82 344 L 84 346 L 84 347 L 89 350 Q 90 350 91 351 L 94 351 L 95 352 L 419 352 L 420 351 L 422 351 L 425 349 L 426 349 L 430 344 Q 430 342 431 342 L 431 340 L 432 339 L 432 334 L 431 333 L 431 331 Q 430 330 430 329 L 428 327 L 428 326 L 424 322 Q 422 322 422 321 L 419 321 L 418 320 L 94 320 Z " /></svg>